<svg class="rich-terminal" viewBox="0 0 1482 977.1999999999999" xmlns="http://www.w3.org/2000/svg">
    <!-- Generated with Rich https://www.textualize.io -->
    <style>

    @font-face {
        font-family: "Fira Code";
        src: local("FiraCode-Regular"),
                url("https://cdnjs.cloudflare.com/ajax/libs/firacode/6.2.0/woff2/FiraCode-Regular.woff2") format("woff2"),
                url("https://cdnjs.cloudflare.com/ajax/libs/firacode/6.2.0/woff/FiraCode-Regular.woff") format("woff");
        font-style: normal;
        font-weight: 400;
    }
    @font-face {
        font-family: "Fira Code";
        src: local("FiraCode-Bold"),
                url("https://cdnjs.cloudflare.com/ajax/libs/firacode/6.2.0/woff2/FiraCode-Bold.woff2") format("woff2"),
                url("https://cdnjs.cloudflare.com/ajax/libs/firacode/6.2.0/woff/FiraCode-Bold.woff") format("woff");
        font-style: bold;
        font-weight: 700;
    }

    .terminal-2015273408-matrix {
        font-family: Fira Code, monospace;
        font-size: 20px;
        line-height: 24.4px;
        font-variant-east-asian: full-width;
    }

    .terminal-2015273408-title {
        font-size: 18px;
        font-weight: bold;
        font-family: arial;
    }

    .terminal-2015273408-r1 { fill: #c5c8c6 }
.terminal-2015273408-r2 { fill: #e6e8ec;font-weight: bold }
.terminal-2015273408-r3 { fill: #8b919e }
.terminal-2015273408-r4 { fill: #7c7cff }
.terminal-2015273408-r5 { fill: #8b919e;font-weight: bold }
.terminal-2015273408-r6 { fill: #e6e8ec }
.terminal-2015273408-r7 { fill: #2b303a }
.terminal-2015273408-r8 { fill: #f87171 }
.terminal-2015273408-r9 { fill: #c3c9d4 }
.terminal-2015273408-r10 { fill: #4ade80 }
.terminal-2015273408-r11 { fill: #5f6672 }
.terminal-2015273408-r12 { fill: #7c7cff;font-weight: bold }
.terminal-2015273408-r13 { fill: #393b3e }
    </style>

    <defs>
    <clipPath id="terminal-2015273408-clip-terminal">
      <rect x="0" y="0" width="1463.0" height="926.1999999999999" />
    </clipPath>
    <clipPath id="terminal-2015273408-line-0">
    <rect x="0" y="1.5" width="1464" height="24.65"/>
            </clipPath>
<clipPath id="terminal-2015273408-line-1">
    <rect x="0" y="25.9" width="1464" height="24.65"/>
            </clipPath>
<clipPath id="terminal-2015273408-line-2">
    <rect x="0" y="50.3" width="1464" height="24.65"/>
            </clipPath>
<clipPath id="terminal-2015273408-line-3">
    <rect x="0" y="74.7" width="1464" height="24.65"/>
            </clipPath>
<clipPath id="terminal-2015273408-line-4">
    <rect x="0" y="99.1" width="1464" height="24.65"/>
            </clipPath>
<clipPath id="terminal-2015273408-line-5">
    <rect x="0" y="123.5" width="1464" height="24.65"/>
            </clipPath>
<clipPath id="terminal-2015273408-line-6">
    <rect x="0" y="147.9" width="1464" height="24.65"/>
            </clipPath>
<clipPath id="terminal-2015273408-line-7">
    <rect x="0" y="172.3" width="1464" height="24.65"/>
            </clipPath>
<clipPath id="terminal-2015273408-line-8">
    <rect x="0" y="196.7" width="1464" height="24.65"/>
            </clipPath>
<clipPath id="terminal-2015273408-line-9">
    <rect x="0" y="221.1" width="1464" height="24.65"/>
            </clipPath>
<clipPath id="terminal-2015273408-line-10">
    <rect x="0" y="245.5" width="1464" height="24.65"/>
            </clipPath>
<clipPath id="terminal-2015273408-line-11">
    <rect x="0" y="269.9" width="1464" height="24.65"/>
            </clipPath>
<clipPath id="terminal-2015273408-line-12">
    <rect x="0" y="294.3" width="1464" height="24.65"/>
            </clipPath>
<clipPath id="terminal-2015273408-line-13">
    <rect x="0" y="318.7" width="1464" height="24.65"/>
            </clipPath>
<clipPath id="terminal-2015273408-line-14">
    <rect x="0" y="343.1" width="1464" height="24.65"/>
            </clipPath>
<clipPath id="terminal-2015273408-line-15">
    <rect x="0" y="367.5" width="1464" height="24.65"/>
            </clipPath>
<clipPath id="terminal-2015273408-line-16">
    <rect x="0" y="391.9" width="1464" height="24.65"/>
            </clipPath>
<clipPath id="terminal-2015273408-line-17">
    <rect x="0" y="416.3" width="1464" height="24.65"/>
            </clipPath>
<clipPath id="terminal-2015273408-line-18">
    <rect x="0" y="440.7" width="1464" height="24.65"/>
            </clipPath>
<clipPath id="terminal-2015273408-line-19">
    <rect x="0" y="465.1" width="1464" height="24.65"/>
            </clipPath>
<clipPath id="terminal-2015273408-line-20">
    <rect x="0" y="489.5" width="1464" height="24.65"/>
            </clipPath>
<clipPath id="terminal-2015273408-line-21">
    <rect x="0" y="513.9" width="1464" height="24.65"/>
            </clipPath>
<clipPath id="terminal-2015273408-line-22">
    <rect x="0" y="538.3" width="1464" height="24.65"/>
            </clipPath>
<clipPath id="terminal-2015273408-line-23">
    <rect x="0" y="562.7" width="1464" height="24.65"/>
            </clipPath>
<clipPath id="terminal-2015273408-line-24">
    <rect x="0" y="587.1" width="1464" height="24.65"/>
            </clipPath>
<clipPath id="terminal-2015273408-line-25">
    <rect x="0" y="611.5" width="1464" height="24.65"/>
            </clipPath>
<clipPath id="terminal-2015273408-line-26">
    <rect x="0" y="635.9" width="1464" height="24.65"/>
            </clipPath>
<clipPath id="terminal-2015273408-line-27">
    <rect x="0" y="660.3" width="1464" height="24.65"/>
            </clipPath>
<clipPath id="terminal-2015273408-line-28">
    <rect x="0" y="684.7" width="1464" height="24.65"/>
            </clipPath>
<clipPath id="terminal-2015273408-line-29">
    <rect x="0" y="709.1" width="1464" height="24.65"/>
            </clipPath>
<clipPath id="terminal-2015273408-line-30">
    <rect x="0" y="733.5" width="1464" height="24.65"/>
            </clipPath>
<clipPath id="terminal-2015273408-line-31">
    <rect x="0" y="757.9" width="1464" height="24.65"/>
            </clipPath>
<clipPath id="terminal-2015273408-line-32">
    <rect x="0" y="782.3" width="1464" height="24.65"/>
            </clipPath>
<clipPath id="terminal-2015273408-line-33">
    <rect x="0" y="806.7" width="1464" height="24.65"/>
            </clipPath>
<clipPath id="terminal-2015273408-line-34">
    <rect x="0" y="831.1" width="1464" height="24.65"/>
            </clipPath>
<clipPath id="terminal-2015273408-line-35">
    <rect x="0" y="855.5" width="1464" height="24.65"/>
            </clipPath>
<clipPath id="terminal-2015273408-line-36">
    <rect x="0" y="879.9" width="1464" height="24.65"/>
            </clipPath>
    </defs>

    <rect fill="#292929" stroke="rgba(255,255,255,0.35)" stroke-width="1" x="1" y="1" width="1480" height="975.2" rx="8"/><text class="terminal-2015273408-title" fill="#c5c8c6" text-anchor="middle" x="740" y="27">Lectern&#160;—&#160;home</text>
            <g transform="translate(26,22)">
            <circle cx="0" cy="0" r="7" fill="#ff5f57"/>
            <circle cx="22" cy="0" r="7" fill="#febc2e"/>
            <circle cx="44" cy="0" r="7" fill="#28c840"/>
            </g>
        
    <g transform="translate(9, 41)" clip-path="url(#terminal-2015273408-clip-terminal)">
    <rect fill="#0e1013" x="0" y="1.5" width="1464" height="24.65" shape-rendering="crispEdges"/><rect fill="#0e1013" x="0" y="25.9" width="12.2" height="24.65" shape-rendering="crispEdges"/><rect fill="#0e1013" x="12.2" y="25.9" width="85.4" height="24.65" shape-rendering="crispEdges"/><rect fill="#0e1013" x="97.6" y="25.9" width="1354.2" height="24.65" shape-rendering="crispEdges"/><rect fill="#0e1013" x="1451.8" y="25.9" width="12.2" height="24.65" shape-rendering="crispEdges"/><rect fill="#0e1013" x="0" y="50.3" width="12.2" height="24.65" shape-rendering="crispEdges"/><rect fill="#0e1013" x="12.2" y="50.3" width="353.8" height="24.65" shape-rendering="crispEdges"/><rect fill="#0e1013" x="366" y="50.3" width="1085.8" height="24.65" shape-rendering="crispEdges"/><rect fill="#0e1013" x="1451.8" y="50.3" width="12.2" height="24.65" shape-rendering="crispEdges"/><rect fill="#0e1013" x="0" y="74.7" width="1464" height="24.65" shape-rendering="crispEdges"/><rect fill="#0e1013" x="0" y="99.1" width="1464" height="24.65" shape-rendering="crispEdges"/><rect fill="#0e1013" x="0" y="123.5" width="24.4" height="24.65" shape-rendering="crispEdges"/><rect fill="#1c1f26" x="24.4" y="123.5" width="12.2" height="24.65" shape-rendering="crispEdges"/><rect fill="#1c1f26" x="36.6" y="123.5" width="951.6" height="24.65" shape-rendering="crispEdges"/><rect fill="#1c1f26" x="988.2" y="123.5" width="12.2" height="24.65" shape-rendering="crispEdges"/><rect fill="#0e1013" x="1000.4" y="123.5" width="24.4" height="24.65" shape-rendering="crispEdges"/><rect fill="#0e1013" x="1024.8" y="123.5" width="414.8" height="24.65" shape-rendering="crispEdges"/><rect fill="#0e1013" x="1439.6" y="123.5" width="24.4" height="24.65" shape-rendering="crispEdges"/><rect fill="#0e1013" x="0" y="147.9" width="24.4" height="24.65" shape-rendering="crispEdges"/><rect fill="#1c1f26" x="24.4" y="147.9" width="12.2" height="24.65" shape-rendering="crispEdges"/><rect fill="#1c1f26" x="36.6" y="147.9" width="951.6" height="24.65" shape-rendering="crispEdges"/><rect fill="#1c1f26" x="988.2" y="147.9" width="12.2" height="24.65" shape-rendering="crispEdges"/><rect fill="#0e1013" x="1000.4" y="147.9" width="24.4" height="24.65" shape-rendering="crispEdges"/><rect fill="#0e1013" x="1024.8" y="147.9" width="12.2" height="24.65" shape-rendering="crispEdges"/><rect fill="#0e1013" x="1037" y="147.9" width="97.6" height="24.65" shape-rendering="crispEdges"/><rect fill="#0e1013" x="1134.6" y="147.9" width="12.2" height="24.65" shape-rendering="crispEdges"/><rect fill="#0e1013" x="1146.8" y="147.9" width="292.8" height="24.65" shape-rendering="crispEdges"/><rect fill="#0e1013" x="1439.6" y="147.9" width="24.4" height="24.65" shape-rendering="crispEdges"/><rect fill="#0e1013" x="0" y="172.3" width="24.4" height="24.65" shape-rendering="crispEdges"/><rect fill="#1c1f26" x="24.4" y="172.3" width="12.2" height="24.65" shape-rendering="crispEdges"/><rect fill="#1c1f26" x="36.6" y="172.3" width="24.4" height="24.65" shape-rendering="crispEdges"/><rect fill="#1c1f26" x="61" y="172.3" width="134.2" height="24.65" shape-rendering="crispEdges"/><rect fill="#1c1f26" x="195.2" y="172.3" width="109.8" height="24.65" shape-rendering="crispEdges"/><rect fill="#1c1f26" x="305" y="172.3" width="658.8" height="24.65" shape-rendering="crispEdges"/><rect fill="#1c1f26" x="963.8" y="172.3" width="24.4" height="24.65" shape-rendering="crispEdges"/><rect fill="#1c1f26" x="988.2" y="172.3" width="12.2" height="24.65" shape-rendering="crispEdges"/><rect fill="#0e1013" x="1000.4" y="172.3" width="24.4" height="24.65" shape-rendering="crispEdges"/><rect fill="#16181d" x="1024.8" y="172.3" width="12.2" height="24.65" shape-rendering="crispEdges"/><rect fill="#16181d" x="1037" y="172.3" width="390.4" height="24.65" shape-rendering="crispEdges"/><rect fill="#16181d" x="1427.4" y="172.3" width="12.2" height="24.65" shape-rendering="crispEdges"/><rect fill="#0e1013" x="1439.6" y="172.3" width="24.4" height="24.65" shape-rendering="crispEdges"/><rect fill="#0e1013" x="0" y="196.7" width="24.4" height="24.65" shape-rendering="crispEdges"/><rect fill="#1c1f26" x="24.4" y="196.7" width="12.2" height="24.65" shape-rendering="crispEdges"/><rect fill="#1c1f26" x="36.6" y="196.7" width="951.6" height="24.65" shape-rendering="crispEdges"/><rect fill="#1c1f26" x="988.2" y="196.7" width="12.2" height="24.65" shape-rendering="crispEdges"/><rect fill="#0e1013" x="1000.4" y="196.7" width="24.4" height="24.65" shape-rendering="crispEdges"/><rect fill="#16181d" x="1024.8" y="196.7" width="12.2" height="24.65" shape-rendering="crispEdges"/><rect fill="#16181d" x="1037" y="196.7" width="390.4" height="24.65" shape-rendering="crispEdges"/><rect fill="#16181d" x="1427.4" y="196.7" width="12.2" height="24.65" shape-rendering="crispEdges"/><rect fill="#0e1013" x="1439.6" y="196.7" width="24.4" height="24.65" shape-rendering="crispEdges"/><rect fill="#0e1013" x="0" y="221.1" width="24.4" height="24.65" shape-rendering="crispEdges"/><rect fill="#1c1f26" x="24.4" y="221.1" width="12.2" height="24.65" shape-rendering="crispEdges"/><rect fill="#1c1f26" x="36.6" y="221.1" width="951.6" height="24.65" shape-rendering="crispEdges"/><rect fill="#1c1f26" x="988.2" y="221.1" width="12.2" height="24.65" shape-rendering="crispEdges"/><rect fill="#0e1013" x="1000.4" y="221.1" width="24.4" height="24.65" shape-rendering="crispEdges"/><rect fill="#16181d" x="1024.8" y="221.1" width="12.2" height="24.65" shape-rendering="crispEdges"/><rect fill="#16181d" x="1037" y="221.1" width="12.2" height="24.65" shape-rendering="crispEdges"/><rect fill="#16181d" x="1049.2" y="221.1" width="158.6" height="24.65" shape-rendering="crispEdges"/><rect fill="#16181d" x="1207.8" y="221.1" width="24.4" height="24.65" shape-rendering="crispEdges"/><rect fill="#16181d" x="1232.2" y="221.1" width="97.6" height="24.65" shape-rendering="crispEdges"/><rect fill="#16181d" x="1329.8" y="221.1" width="85.4" height="24.65" shape-rendering="crispEdges"/><rect fill="#16181d" x="1415.2" y="221.1" width="12.2" height="24.65" shape-rendering="crispEdges"/><rect fill="#16181d" x="1427.4" y="221.1" width="12.2" height="24.65" shape-rendering="crispEdges"/><rect fill="#0e1013" x="1439.6" y="221.1" width="24.4" height="24.65" shape-rendering="crispEdges"/><rect fill="#0e1013" x="0" y="245.5" width="24.4" height="24.65" shape-rendering="crispEdges"/><rect fill="#0e1013" x="24.4" y="245.5" width="976" height="24.65" shape-rendering="crispEdges"/><rect fill="#0e1013" x="1000.4" y="245.5" width="24.4" height="24.65" shape-rendering="crispEdges"/><rect fill="#16181d" x="1024.8" y="245.5" width="12.2" height="24.65" shape-rendering="crispEdges"/><rect fill="#16181d" x="1037" y="245.5" width="12.2" height="24.65" shape-rendering="crispEdges"/><rect fill="#16181d" x="1049.2" y="245.5" width="85.4" height="24.65" shape-rendering="crispEdges"/><rect fill="#16181d" x="1134.6" y="245.5" width="280.6" height="24.65" shape-rendering="crispEdges"/><rect fill="#16181d" x="1415.2" y="245.5" width="12.2" height="24.65" shape-rendering="crispEdges"/><rect fill="#16181d" x="1427.4" y="245.5" width="12.2" height="24.65" shape-rendering="crispEdges"/><rect fill="#0e1013" x="1439.6" y="245.5" width="24.4" height="24.65" shape-rendering="crispEdges"/><rect fill="#0e1013" x="0" y="269.9" width="24.4" height="24.65" shape-rendering="crispEdges"/><rect fill="#0e1013" x="24.4" y="269.9" width="12.2" height="24.65" shape-rendering="crispEdges"/><rect fill="#0e1013" x="36.6" y="269.9" width="73.2" height="24.65" shape-rendering="crispEdges"/><rect fill="#0e1013" x="109.8" y="269.9" width="12.2" height="24.65" shape-rendering="crispEdges"/><rect fill="#0e1013" x="122" y="269.9" width="878.4" height="24.65" shape-rendering="crispEdges"/><rect fill="#0e1013" x="1000.4" y="269.9" width="24.4" height="24.65" shape-rendering="crispEdges"/><rect fill="#16181d" x="1024.8" y="269.9" width="12.2" height="24.65" shape-rendering="crispEdges"/><rect fill="#16181d" x="1037" y="269.9" width="12.2" height="24.65" shape-rendering="crispEdges"/><rect fill="#16181d" x="1049.2" y="269.9" width="158.6" height="24.65" shape-rendering="crispEdges"/><rect fill="#16181d" x="1207.8" y="269.9" width="24.4" height="24.65" shape-rendering="crispEdges"/><rect fill="#16181d" x="1232.2" y="269.9" width="85.4" height="24.65" shape-rendering="crispEdges"/><rect fill="#16181d" x="1317.6" y="269.9" width="97.6" height="24.65" shape-rendering="crispEdges"/><rect fill="#16181d" x="1415.2" y="269.9" width="12.2" height="24.65" shape-rendering="crispEdges"/><rect fill="#16181d" x="1427.4" y="269.9" width="12.2" height="24.65" shape-rendering="crispEdges"/><rect fill="#0e1013" x="1439.6" y="269.9" width="24.4" height="24.65" shape-rendering="crispEdges"/><rect fill="#0e1013" x="0" y="294.3" width="24.4" height="24.65" shape-rendering="crispEdges"/><rect fill="#0e1013" x="24.4" y="294.3" width="12.2" height="24.65" shape-rendering="crispEdges"/><rect fill="#0e1013" x="36.6" y="294.3" width="122" height="24.65" shape-rendering="crispEdges"/><rect fill="#0e1013" x="158.6" y="294.3" width="585.6" height="24.65" shape-rendering="crispEdges"/><rect fill="#0e1013" x="744.2" y="294.3" width="97.6" height="24.65" shape-rendering="crispEdges"/><rect fill="#0e1013" x="841.8" y="294.3" width="146.4" height="24.65" shape-rendering="crispEdges"/><rect fill="#0e1013" x="988.2" y="294.3" width="12.2" height="24.65" shape-rendering="crispEdges"/><rect fill="#0e1013" x="1000.4" y="294.3" width="24.4" height="24.65" shape-rendering="crispEdges"/><rect fill="#16181d" x="1024.8" y="294.3" width="12.2" height="24.65" shape-rendering="crispEdges"/><rect fill="#16181d" x="1037" y="294.3" width="12.2" height="24.65" shape-rendering="crispEdges"/><rect fill="#16181d" x="1049.2" y="294.3" width="158.6" height="24.65" shape-rendering="crispEdges"/><rect fill="#16181d" x="1207.8" y="294.3" width="24.4" height="24.65" shape-rendering="crispEdges"/><rect fill="#16181d" x="1232.2" y="294.3" width="170.8" height="24.65" shape-rendering="crispEdges"/><rect fill="#16181d" x="1403" y="294.3" width="12.2" height="24.65" shape-rendering="crispEdges"/><rect fill="#16181d" x="1415.2" y="294.3" width="12.2" height="24.65" shape-rendering="crispEdges"/><rect fill="#16181d" x="1427.4" y="294.3" width="12.2" height="24.65" shape-rendering="crispEdges"/><rect fill="#0e1013" x="1439.6" y="294.3" width="24.4" height="24.65" shape-rendering="crispEdges"/><rect fill="#0e1013" x="0" y="318.7" width="24.4" height="24.65" shape-rendering="crispEdges"/><rect fill="#0e1013" x="24.4" y="318.7" width="976" height="24.65" shape-rendering="crispEdges"/><rect fill="#0e1013" x="1000.4" y="318.7" width="24.4" height="24.65" shape-rendering="crispEdges"/><rect fill="#16181d" x="1024.8" y="318.7" width="12.2" height="24.65" shape-rendering="crispEdges"/><rect fill="#16181d" x="1037" y="318.7" width="12.2" height="24.65" shape-rendering="crispEdges"/><rect fill="#16181d" x="1049.2" y="318.7" width="158.6" height="24.65" shape-rendering="crispEdges"/><rect fill="#16181d" x="1207.8" y="318.7" width="24.4" height="24.65" shape-rendering="crispEdges"/><rect fill="#16181d" x="1232.2" y="318.7" width="109.8" height="24.65" shape-rendering="crispEdges"/><rect fill="#16181d" x="1342" y="318.7" width="73.2" height="24.65" shape-rendering="crispEdges"/><rect fill="#16181d" x="1415.2" y="318.7" width="12.2" height="24.65" shape-rendering="crispEdges"/><rect fill="#16181d" x="1427.4" y="318.7" width="12.2" height="24.65" shape-rendering="crispEdges"/><rect fill="#0e1013" x="1439.6" y="318.7" width="24.4" height="24.65" shape-rendering="crispEdges"/><rect fill="#0e1013" x="0" y="343.1" width="24.4" height="24.65" shape-rendering="crispEdges"/><rect fill="#0e1013" x="24.4" y="343.1" width="976" height="24.65" shape-rendering="crispEdges"/><rect fill="#0e1013" x="1000.4" y="343.1" width="24.4" height="24.65" shape-rendering="crispEdges"/><rect fill="#16181d" x="1024.8" y="343.1" width="12.2" height="24.65" shape-rendering="crispEdges"/><rect fill="#16181d" x="1037" y="343.1" width="12.2" height="24.65" shape-rendering="crispEdges"/><rect fill="#16181d" x="1049.2" y="343.1" width="85.4" height="24.65" shape-rendering="crispEdges"/><rect fill="#16181d" x="1134.6" y="343.1" width="280.6" height="24.65" shape-rendering="crispEdges"/><rect fill="#16181d" x="1415.2" y="343.1" width="12.2" height="24.65" shape-rendering="crispEdges"/><rect fill="#16181d" x="1427.4" y="343.1" width="12.2" height="24.65" shape-rendering="crispEdges"/><rect fill="#0e1013" x="1439.6" y="343.1" width="24.4" height="24.65" shape-rendering="crispEdges"/><rect fill="#0e1013" x="0" y="367.5" width="24.4" height="24.65" shape-rendering="crispEdges"/><rect fill="#0e1013" x="24.4" y="367.5" width="976" height="24.65" shape-rendering="crispEdges"/><rect fill="#0e1013" x="1000.4" y="367.5" width="24.4" height="24.65" shape-rendering="crispEdges"/><rect fill="#16181d" x="1024.8" y="367.5" width="12.2" height="24.65" shape-rendering="crispEdges"/><rect fill="#16181d" x="1037" y="367.5" width="12.2" height="24.65" shape-rendering="crispEdges"/><rect fill="#16181d" x="1049.2" y="367.5" width="158.6" height="24.65" shape-rendering="crispEdges"/><rect fill="#16181d" x="1207.8" y="367.5" width="24.4" height="24.65" shape-rendering="crispEdges"/><rect fill="#16181d" x="1232.2" y="367.5" width="122" height="24.65" shape-rendering="crispEdges"/><rect fill="#16181d" x="1354.2" y="367.5" width="61" height="24.65" shape-rendering="crispEdges"/><rect fill="#16181d" x="1415.2" y="367.5" width="12.2" height="24.65" shape-rendering="crispEdges"/><rect fill="#16181d" x="1427.4" y="367.5" width="12.2" height="24.65" shape-rendering="crispEdges"/><rect fill="#0e1013" x="1439.6" y="367.5" width="24.4" height="24.65" shape-rendering="crispEdges"/><rect fill="#0e1013" x="0" y="391.9" width="24.4" height="24.65" shape-rendering="crispEdges"/><rect fill="#0e1013" x="24.4" y="391.9" width="976" height="24.65" shape-rendering="crispEdges"/><rect fill="#0e1013" x="1000.4" y="391.9" width="24.4" height="24.65" shape-rendering="crispEdges"/><rect fill="#16181d" x="1024.8" y="391.9" width="12.2" height="24.65" shape-rendering="crispEdges"/><rect fill="#16181d" x="1037" y="391.9" width="390.4" height="24.65" shape-rendering="crispEdges"/><rect fill="#16181d" x="1427.4" y="391.9" width="12.2" height="24.65" shape-rendering="crispEdges"/><rect fill="#0e1013" x="1439.6" y="391.9" width="24.4" height="24.65" shape-rendering="crispEdges"/><rect fill="#0e1013" x="0" y="416.3" width="24.4" height="24.65" shape-rendering="crispEdges"/><rect fill="#0e1013" x="24.4" y="416.3" width="976" height="24.65" shape-rendering="crispEdges"/><rect fill="#0e1013" x="1000.4" y="416.3" width="24.4" height="24.65" shape-rendering="crispEdges"/><rect fill="#16181d" x="1024.8" y="416.3" width="12.2" height="24.65" shape-rendering="crispEdges"/><rect fill="#16181d" x="1037" y="416.3" width="390.4" height="24.65" shape-rendering="crispEdges"/><rect fill="#16181d" x="1427.4" y="416.3" width="12.2" height="24.65" shape-rendering="crispEdges"/><rect fill="#0e1013" x="1439.6" y="416.3" width="24.4" height="24.65" shape-rendering="crispEdges"/><rect fill="#0e1013" x="0" y="440.7" width="24.4" height="24.65" shape-rendering="crispEdges"/><rect fill="#0e1013" x="24.4" y="440.7" width="976" height="24.65" shape-rendering="crispEdges"/><rect fill="#0e1013" x="1000.4" y="440.7" width="24.4" height="24.65" shape-rendering="crispEdges"/><rect fill="#0e1013" x="1024.8" y="440.7" width="414.8" height="24.65" shape-rendering="crispEdges"/><rect fill="#0e1013" x="1439.6" y="440.7" width="24.4" height="24.65" shape-rendering="crispEdges"/><rect fill="#0e1013" x="0" y="465.1" width="24.4" height="24.65" shape-rendering="crispEdges"/><rect fill="#0e1013" x="24.4" y="465.1" width="976" height="24.65" shape-rendering="crispEdges"/><rect fill="#0e1013" x="1000.4" y="465.1" width="24.4" height="24.65" shape-rendering="crispEdges"/><rect fill="#0e1013" x="1024.8" y="465.1" width="414.8" height="24.65" shape-rendering="crispEdges"/><rect fill="#0e1013" x="1439.6" y="465.1" width="24.4" height="24.65" shape-rendering="crispEdges"/><rect fill="#0e1013" x="0" y="489.5" width="24.4" height="24.65" shape-rendering="crispEdges"/><rect fill="#0e1013" x="24.4" y="489.5" width="976" height="24.65" shape-rendering="crispEdges"/><rect fill="#0e1013" x="1000.4" y="489.5" width="24.4" height="24.65" shape-rendering="crispEdges"/><rect fill="#0e1013" x="1024.8" y="489.5" width="414.8" height="24.65" shape-rendering="crispEdges"/><rect fill="#0e1013" x="1439.6" y="489.5" width="24.4" height="24.65" shape-rendering="crispEdges"/><rect fill="#0e1013" x="0" y="513.9" width="24.4" height="24.65" shape-rendering="crispEdges"/><rect fill="#0e1013" x="24.4" y="513.9" width="976" height="24.65" shape-rendering="crispEdges"/><rect fill="#0e1013" x="1000.4" y="513.9" width="24.4" height="24.65" shape-rendering="crispEdges"/><rect fill="#0e1013" x="1024.8" y="513.9" width="414.8" height="24.65" shape-rendering="crispEdges"/><rect fill="#0e1013" x="1439.6" y="513.9" width="24.4" height="24.65" shape-rendering="crispEdges"/><rect fill="#0e1013" x="0" y="538.3" width="24.4" height="24.65" shape-rendering="crispEdges"/><rect fill="#0e1013" x="24.4" y="538.3" width="976" height="24.65" shape-rendering="crispEdges"/><rect fill="#0e1013" x="1000.4" y="538.3" width="24.4" height="24.65" shape-rendering="crispEdges"/><rect fill="#0e1013" x="1024.8" y="538.3" width="414.8" height="24.65" shape-rendering="crispEdges"/><rect fill="#0e1013" x="1439.6" y="538.3" width="24.4" height="24.65" shape-rendering="crispEdges"/><rect fill="#0e1013" x="0" y="562.7" width="24.4" height="24.65" shape-rendering="crispEdges"/><rect fill="#0e1013" x="24.4" y="562.7" width="976" height="24.65" shape-rendering="crispEdges"/><rect fill="#0e1013" x="1000.4" y="562.7" width="24.4" height="24.65" shape-rendering="crispEdges"/><rect fill="#0e1013" x="1024.8" y="562.7" width="414.8" height="24.65" shape-rendering="crispEdges"/><rect fill="#0e1013" x="1439.6" y="562.7" width="24.4" height="24.65" shape-rendering="crispEdges"/><rect fill="#0e1013" x="0" y="587.1" width="24.4" height="24.65" shape-rendering="crispEdges"/><rect fill="#0e1013" x="24.4" y="587.1" width="976" height="24.65" shape-rendering="crispEdges"/><rect fill="#0e1013" x="1000.4" y="587.1" width="24.4" height="24.65" shape-rendering="crispEdges"/><rect fill="#0e1013" x="1024.8" y="587.1" width="414.8" height="24.65" shape-rendering="crispEdges"/><rect fill="#0e1013" x="1439.6" y="587.1" width="24.4" height="24.65" shape-rendering="crispEdges"/><rect fill="#0e1013" x="0" y="611.5" width="24.4" height="24.65" shape-rendering="crispEdges"/><rect fill="#0e1013" x="24.4" y="611.5" width="976" height="24.65" shape-rendering="crispEdges"/><rect fill="#0e1013" x="1000.4" y="611.5" width="24.4" height="24.65" shape-rendering="crispEdges"/><rect fill="#0e1013" x="1024.8" y="611.5" width="414.8" height="24.65" shape-rendering="crispEdges"/><rect fill="#0e1013" x="1439.6" y="611.5" width="24.4" height="24.65" shape-rendering="crispEdges"/><rect fill="#0e1013" x="0" y="635.9" width="24.4" height="24.65" shape-rendering="crispEdges"/><rect fill="#0e1013" x="24.4" y="635.9" width="976" height="24.65" shape-rendering="crispEdges"/><rect fill="#0e1013" x="1000.4" y="635.9" width="24.4" height="24.65" shape-rendering="crispEdges"/><rect fill="#0e1013" x="1024.8" y="635.9" width="414.8" height="24.65" shape-rendering="crispEdges"/><rect fill="#0e1013" x="1439.6" y="635.9" width="24.4" height="24.65" shape-rendering="crispEdges"/><rect fill="#0e1013" x="0" y="660.3" width="24.4" height="24.65" shape-rendering="crispEdges"/><rect fill="#0e1013" x="24.4" y="660.3" width="976" height="24.65" shape-rendering="crispEdges"/><rect fill="#0e1013" x="1000.4" y="660.3" width="24.4" height="24.65" shape-rendering="crispEdges"/><rect fill="#0e1013" x="1024.8" y="660.3" width="414.8" height="24.65" shape-rendering="crispEdges"/><rect fill="#0e1013" x="1439.6" y="660.3" width="24.4" height="24.65" shape-rendering="crispEdges"/><rect fill="#0e1013" x="0" y="684.7" width="24.4" height="24.65" shape-rendering="crispEdges"/><rect fill="#0e1013" x="24.4" y="684.7" width="976" height="24.65" shape-rendering="crispEdges"/><rect fill="#0e1013" x="1000.4" y="684.7" width="24.4" height="24.65" shape-rendering="crispEdges"/><rect fill="#0e1013" x="1024.8" y="684.7" width="414.8" height="24.65" shape-rendering="crispEdges"/><rect fill="#0e1013" x="1439.6" y="684.7" width="24.4" height="24.65" shape-rendering="crispEdges"/><rect fill="#0e1013" x="0" y="709.1" width="24.4" height="24.65" shape-rendering="crispEdges"/><rect fill="#0e1013" x="24.4" y="709.1" width="976" height="24.65" shape-rendering="crispEdges"/><rect fill="#0e1013" x="1000.4" y="709.1" width="24.4" height="24.65" shape-rendering="crispEdges"/><rect fill="#0e1013" x="1024.8" y="709.1" width="414.8" height="24.65" shape-rendering="crispEdges"/><rect fill="#0e1013" x="1439.6" y="709.1" width="24.4" height="24.65" shape-rendering="crispEdges"/><rect fill="#0e1013" x="0" y="733.5" width="24.4" height="24.65" shape-rendering="crispEdges"/><rect fill="#0e1013" x="24.4" y="733.5" width="976" height="24.65" shape-rendering="crispEdges"/><rect fill="#0e1013" x="1000.4" y="733.5" width="24.4" height="24.65" shape-rendering="crispEdges"/><rect fill="#0e1013" x="1024.8" y="733.5" width="414.8" height="24.65" shape-rendering="crispEdges"/><rect fill="#0e1013" x="1439.6" y="733.5" width="24.4" height="24.65" shape-rendering="crispEdges"/><rect fill="#0e1013" x="0" y="757.9" width="24.4" height="24.65" shape-rendering="crispEdges"/><rect fill="#0e1013" x="24.4" y="757.9" width="976" height="24.65" shape-rendering="crispEdges"/><rect fill="#0e1013" x="1000.4" y="757.9" width="24.4" height="24.65" shape-rendering="crispEdges"/><rect fill="#0e1013" x="1024.8" y="757.9" width="414.8" height="24.65" shape-rendering="crispEdges"/><rect fill="#0e1013" x="1439.6" y="757.9" width="24.4" height="24.65" shape-rendering="crispEdges"/><rect fill="#0e1013" x="0" y="782.3" width="24.4" height="24.65" shape-rendering="crispEdges"/><rect fill="#0e1013" x="24.4" y="782.3" width="976" height="24.65" shape-rendering="crispEdges"/><rect fill="#0e1013" x="1000.4" y="782.3" width="24.4" height="24.65" shape-rendering="crispEdges"/><rect fill="#0e1013" x="1024.8" y="782.3" width="414.8" height="24.65" shape-rendering="crispEdges"/><rect fill="#0e1013" x="1439.6" y="782.3" width="24.4" height="24.65" shape-rendering="crispEdges"/><rect fill="#0e1013" x="0" y="806.7" width="24.4" height="24.65" shape-rendering="crispEdges"/><rect fill="#0e1013" x="24.4" y="806.7" width="976" height="24.65" shape-rendering="crispEdges"/><rect fill="#0e1013" x="1000.4" y="806.7" width="24.4" height="24.65" shape-rendering="crispEdges"/><rect fill="#0e1013" x="1024.8" y="806.7" width="414.8" height="24.65" shape-rendering="crispEdges"/><rect fill="#0e1013" x="1439.6" y="806.7" width="24.4" height="24.65" shape-rendering="crispEdges"/><rect fill="#0e1013" x="0" y="831.1" width="24.4" height="24.65" shape-rendering="crispEdges"/><rect fill="#0e1013" x="24.4" y="831.1" width="976" height="24.65" shape-rendering="crispEdges"/><rect fill="#0e1013" x="1000.4" y="831.1" width="24.4" height="24.65" shape-rendering="crispEdges"/><rect fill="#0e1013" x="1024.8" y="831.1" width="414.8" height="24.65" shape-rendering="crispEdges"/><rect fill="#0e1013" x="1439.6" y="831.1" width="24.4" height="24.65" shape-rendering="crispEdges"/><rect fill="#0e1013" x="0" y="855.5" width="24.4" height="24.65" shape-rendering="crispEdges"/><rect fill="#0e1013" x="24.4" y="855.5" width="976" height="24.65" shape-rendering="crispEdges"/><rect fill="#0e1013" x="1000.4" y="855.5" width="24.4" height="24.65" shape-rendering="crispEdges"/><rect fill="#0e1013" x="1024.8" y="855.5" width="414.8" height="24.65" shape-rendering="crispEdges"/><rect fill="#0e1013" x="1439.6" y="855.5" width="24.4" height="24.65" shape-rendering="crispEdges"/><rect fill="#0e1013" x="0" y="879.9" width="1464" height="24.65" shape-rendering="crispEdges"/><rect fill="#0e1013" x="0" y="904.3" width="36.6" height="24.65" shape-rendering="crispEdges"/><rect fill="#0e1013" x="36.6" y="904.3" width="146.4" height="24.65" shape-rendering="crispEdges"/><rect fill="#0e1013" x="183" y="904.3" width="36.6" height="24.65" shape-rendering="crispEdges"/><rect fill="#0e1013" x="219.6" y="904.3" width="109.8" height="24.65" shape-rendering="crispEdges"/><rect fill="#0e1013" x="329.4" y="904.3" width="36.6" height="24.65" shape-rendering="crispEdges"/><rect fill="#0e1013" x="366" y="904.3" width="85.4" height="24.65" shape-rendering="crispEdges"/><rect fill="#0e1013" x="451.4" y="904.3" width="36.6" height="24.65" shape-rendering="crispEdges"/><rect fill="#0e1013" x="488" y="904.3" width="109.8" height="24.65" shape-rendering="crispEdges"/><rect fill="#0e1013" x="597.8" y="904.3" width="36.6" height="24.65" shape-rendering="crispEdges"/><rect fill="#0e1013" x="634.4" y="904.3" width="85.4" height="24.65" shape-rendering="crispEdges"/><rect fill="#0e1013" x="719.8" y="904.3" width="36.6" height="24.65" shape-rendering="crispEdges"/><rect fill="#0e1013" x="756.4" y="904.3" width="61" height="24.65" shape-rendering="crispEdges"/><rect fill="#0e1013" x="817.4" y="904.3" width="36.6" height="24.65" shape-rendering="crispEdges"/><rect fill="#0e1013" x="854" y="904.3" width="61" height="24.65" shape-rendering="crispEdges"/><rect fill="#0e1013" x="915" y="904.3" width="390.4" height="24.65" shape-rendering="crispEdges"/><rect fill="#0e1013" x="1305.4" y="904.3" width="12.2" height="24.65" shape-rendering="crispEdges"/><rect fill="#0e1013" x="1317.6" y="904.3" width="24.4" height="24.65" shape-rendering="crispEdges"/><rect fill="#0e1013" x="1342" y="904.3" width="109.8" height="24.65" shape-rendering="crispEdges"/><rect fill="#0e1013" x="1451.8" y="904.3" width="12.2" height="24.65" shape-rendering="crispEdges"/>
    <g class="terminal-2015273408-matrix">
    <text class="terminal-2015273408-r1" x="1464" y="20" textLength="12.2" clip-path="url(#terminal-2015273408-line-0)">
</text><text class="terminal-2015273408-r2" x="12.2" y="44.4" textLength="85.4" clip-path="url(#terminal-2015273408-line-1)">LECTERN</text><text class="terminal-2015273408-r1" x="1464" y="44.4" textLength="12.2" clip-path="url(#terminal-2015273408-line-1)">
</text><text class="terminal-2015273408-r3" x="12.2" y="68.8" textLength="353.8" clip-path="url(#terminal-2015273408-line-2)">Local&#160;AI&#160;lecture&#160;intelligence</text><text class="terminal-2015273408-r1" x="1464" y="68.8" textLength="12.2" clip-path="url(#terminal-2015273408-line-2)">
</text><text class="terminal-2015273408-r1" x="1464" y="93.2" textLength="12.2" clip-path="url(#terminal-2015273408-line-3)">
</text><text class="terminal-2015273408-r1" x="1464" y="117.6" textLength="12.2" clip-path="url(#terminal-2015273408-line-4)">
</text><text class="terminal-2015273408-r4" x="24.4" y="142" textLength="12.2" clip-path="url(#terminal-2015273408-line-5)">╭</text><text class="terminal-2015273408-r4" x="36.6" y="142" textLength="951.6" clip-path="url(#terminal-2015273408-line-5)">──────────────────────────────────────────────────────────────────────────────</text><text class="terminal-2015273408-r4" x="988.2" y="142" textLength="12.2" clip-path="url(#terminal-2015273408-line-5)">╮</text><text class="terminal-2015273408-r1" x="1464" y="142" textLength="12.2" clip-path="url(#terminal-2015273408-line-5)">
</text><text class="terminal-2015273408-r4" x="24.4" y="166.4" textLength="12.2" clip-path="url(#terminal-2015273408-line-6)">│</text><text class="terminal-2015273408-r4" x="988.2" y="166.4" textLength="12.2" clip-path="url(#terminal-2015273408-line-6)">│</text><text class="terminal-2015273408-r5" x="1037" y="166.4" textLength="97.6" clip-path="url(#terminal-2015273408-line-6)">LOCAL&#160;AI</text><text class="terminal-2015273408-r1" x="1464" y="166.4" textLength="12.2" clip-path="url(#terminal-2015273408-line-6)">
</text><text class="terminal-2015273408-r4" x="24.4" y="190.8" textLength="12.2" clip-path="url(#terminal-2015273408-line-7)">│</text><text class="terminal-2015273408-r2" x="61" y="190.8" textLength="134.2" clip-path="url(#terminal-2015273408-line-7)">New&#160;Session</text><text class="terminal-2015273408-r4" x="195.2" y="190.8" textLength="109.8" clip-path="url(#terminal-2015273408-line-7)">&#160;&#160;&#160;&#160;&#160;&#160;&#160;&#160;⏎</text><text class="terminal-2015273408-r4" x="988.2" y="190.8" textLength="12.2" clip-path="url(#terminal-2015273408-line-7)">│</text><text class="terminal-2015273408-r7" x="1024.8" y="190.8" textLength="12.2" clip-path="url(#terminal-2015273408-line-7)">╭</text><text class="terminal-2015273408-r7" x="1037" y="190.8" textLength="390.4" clip-path="url(#terminal-2015273408-line-7)">────────────────────────────────</text><text class="terminal-2015273408-r7" x="1427.4" y="190.8" textLength="12.2" clip-path="url(#terminal-2015273408-line-7)">╮</text><text class="terminal-2015273408-r1" x="1464" y="190.8" textLength="12.2" clip-path="url(#terminal-2015273408-line-7)">
</text><text class="terminal-2015273408-r4" x="24.4" y="215.2" textLength="12.2" clip-path="url(#terminal-2015273408-line-8)">│</text><text class="terminal-2015273408-r4" x="988.2" y="215.2" textLength="12.2" clip-path="url(#terminal-2015273408-line-8)">│</text><text class="terminal-2015273408-r7" x="1024.8" y="215.2" textLength="12.2" clip-path="url(#terminal-2015273408-line-8)">│</text><text class="terminal-2015273408-r7" x="1427.4" y="215.2" textLength="12.2" clip-path="url(#terminal-2015273408-line-8)">│</text><text class="terminal-2015273408-r1" x="1464" y="215.2" textLength="12.2" clip-path="url(#terminal-2015273408-line-8)">
</text><text class="terminal-2015273408-r4" x="24.4" y="239.6" textLength="12.2" clip-path="url(#terminal-2015273408-line-9)">╰</text><text class="terminal-2015273408-r4" x="36.6" y="239.6" textLength="951.6" clip-path="url(#terminal-2015273408-line-9)">──────────────────────────────────────────────────────────────────────────────</text><text class="terminal-2015273408-r4" x="988.2" y="239.6" textLength="12.2" clip-path="url(#terminal-2015273408-line-9)">╯</text><text class="terminal-2015273408-r7" x="1024.8" y="239.6" textLength="12.2" clip-path="url(#terminal-2015273408-line-9)">│</text><text class="terminal-2015273408-r3" x="1049.2" y="239.6" textLength="158.6" clip-path="url(#terminal-2015273408-line-9)">Whisper&#160;&#160;&#160;&#160;&#160;&#160;</text><text class="terminal-2015273408-r8" x="1207.8" y="239.6" textLength="24.4" clip-path="url(#terminal-2015273408-line-9)">◉&#160;</text><text class="terminal-2015273408-r9" x="1232.2" y="239.6" textLength="97.6" clip-path="url(#terminal-2015273408-line-9)">small.en</text><text class="terminal-2015273408-r7" x="1427.4" y="239.6" textLength="12.2" clip-path="url(#terminal-2015273408-line-9)">│</text><text class="terminal-2015273408-r1" x="1464" y="239.6" textLength="12.2" clip-path="url(#terminal-2015273408-line-9)">
</text><text class="terminal-2015273408-r7" x="1024.8" y="264" textLength="12.2" clip-path="url(#terminal-2015273408-line-10)">│</text><text class="terminal-2015273408-r9" x="1049.2" y="264" textLength="85.4" clip-path="url(#terminal-2015273408-line-10)">missing</text><text class="terminal-2015273408-r7" x="1427.4" y="264" textLength="12.2" clip-path="url(#terminal-2015273408-line-10)">│</text><text class="terminal-2015273408-r1" x="1464" y="264" textLength="12.2" clip-path="url(#terminal-2015273408-line-10)">
</text><text class="terminal-2015273408-r5" x="36.6" y="288.4" textLength="73.2" clip-path="url(#terminal-2015273408-line-11)">RECENT</text><text class="terminal-2015273408-r7" x="1024.8" y="288.4" textLength="12.2" clip-path="url(#terminal-2015273408-line-11)">│</text><text class="terminal-2015273408-r3" x="1049.2" y="288.4" textLength="158.6" clip-path="url(#terminal-2015273408-line-11)">Ollama&#160;&#160;&#160;&#160;&#160;&#160;&#160;</text><text class="terminal-2015273408-r10" x="1207.8" y="288.4" textLength="24.4" clip-path="url(#terminal-2015273408-line-11)">◉&#160;</text><text class="terminal-2015273408-r9" x="1232.2" y="288.4" textLength="85.4" clip-path="url(#terminal-2015273408-line-11)">Running</text><text class="terminal-2015273408-r7" x="1427.4" y="288.4" textLength="12.2" clip-path="url(#terminal-2015273408-line-11)">│</text><text class="terminal-2015273408-r1" x="1464" y="288.4" textLength="12.2" clip-path="url(#terminal-2015273408-line-11)">
</text><text class="terminal-2015273408-r11" x="36.6" y="312.8" textLength="122" clip-path="url(#terminal-2015273408-line-12)">Today&#160;&#160;&#160;&#160;&#160;</text><text class="terminal-2015273408-r6" x="158.6" y="312.8" textLength="585.6" clip-path="url(#terminal-2015273408-line-12)">Microbiology&#160;—&#160;Bacterial&#160;Cell&#160;Structure&#160;and…&#160;&#160;&#160;&#160;</text><text class="terminal-2015273408-r3" x="744.2" y="312.8" textLength="97.6" clip-path="url(#terminal-2015273408-line-12)">&#160;&#160;&#160;&#160;&#160;11s</text><text class="terminal-2015273408-r7" x="1024.8" y="312.8" textLength="12.2" clip-path="url(#terminal-2015273408-line-12)">│</text><text class="terminal-2015273408-r3" x="1049.2" y="312.8" textLength="158.6" clip-path="url(#terminal-2015273408-line-12)">Notes&#160;model&#160;&#160;</text><text class="terminal-2015273408-r10" x="1207.8" y="312.8" textLength="24.4" clip-path="url(#terminal-2015273408-line-12)">◉&#160;</text><text class="terminal-2015273408-r9" x="1232.2" y="312.8" textLength="170.8" clip-path="url(#terminal-2015273408-line-12)">qwen3:8b&#160;ready</text><text class="terminal-2015273408-r7" x="1427.4" y="312.8" textLength="12.2" clip-path="url(#terminal-2015273408-line-12)">│</text><text class="terminal-2015273408-r1" x="1464" y="312.8" textLength="12.2" clip-path="url(#terminal-2015273408-line-12)">
</text><text class="terminal-2015273408-r7" x="1024.8" y="337.2" textLength="12.2" clip-path="url(#terminal-2015273408-line-13)">│</text><text class="terminal-2015273408-r3" x="1049.2" y="337.2" textLength="158.6" clip-path="url(#terminal-2015273408-line-13)">Microphone&#160;&#160;&#160;</text><text class="terminal-2015273408-r8" x="1207.8" y="337.2" textLength="24.4" clip-path="url(#terminal-2015273408-line-13)">◉&#160;</text><text class="terminal-2015273408-r9" x="1232.2" y="337.2" textLength="109.8" clip-path="url(#terminal-2015273408-line-13)">PortAudio</text><text class="terminal-2015273408-r7" x="1427.4" y="337.2" textLength="12.2" clip-path="url(#terminal-2015273408-line-13)">│</text><text class="terminal-2015273408-r1" x="1464" y="337.2" textLength="12.2" clip-path="url(#terminal-2015273408-line-13)">
</text><text class="terminal-2015273408-r7" x="1024.8" y="361.6" textLength="12.2" clip-path="url(#terminal-2015273408-line-14)">│</text><text class="terminal-2015273408-r9" x="1049.2" y="361.6" textLength="85.4" clip-path="url(#terminal-2015273408-line-14)">missing</text><text class="terminal-2015273408-r7" x="1427.4" y="361.6" textLength="12.2" clip-path="url(#terminal-2015273408-line-14)">│</text><text class="terminal-2015273408-r1" x="1464" y="361.6" textLength="12.2" clip-path="url(#terminal-2015273408-line-14)">
</text><text class="terminal-2015273408-r7" x="1024.8" y="386" textLength="12.2" clip-path="url(#terminal-2015273408-line-15)">│</text><text class="terminal-2015273408-r3" x="1049.2" y="386" textLength="158.6" clip-path="url(#terminal-2015273408-line-15)">Storage&#160;&#160;&#160;&#160;&#160;&#160;</text><text class="terminal-2015273408-r10" x="1207.8" y="386" textLength="24.4" clip-path="url(#terminal-2015273408-line-15)">◉&#160;</text><text class="terminal-2015273408-r9" x="1232.2" y="386" textLength="122" clip-path="url(#terminal-2015273408-line-15)">32&#160;GB&#160;free</text><text class="terminal-2015273408-r7" x="1427.4" y="386" textLength="12.2" clip-path="url(#terminal-2015273408-line-15)">│</text><text class="terminal-2015273408-r1" x="1464" y="386" textLength="12.2" clip-path="url(#terminal-2015273408-line-15)">
</text><text class="terminal-2015273408-r7" x="1024.8" y="410.4" textLength="12.2" clip-path="url(#terminal-2015273408-line-16)">│</text><text class="terminal-2015273408-r7" x="1427.4" y="410.4" textLength="12.2" clip-path="url(#terminal-2015273408-line-16)">│</text><text class="terminal-2015273408-r1" x="1464" y="410.4" textLength="12.2" clip-path="url(#terminal-2015273408-line-16)">
</text><text class="terminal-2015273408-r7" x="1024.8" y="434.8" textLength="12.2" clip-path="url(#terminal-2015273408-line-17)">╰</text><text class="terminal-2015273408-r7" x="1037" y="434.8" textLength="390.4" clip-path="url(#terminal-2015273408-line-17)">────────────────────────────────</text><text class="terminal-2015273408-r7" x="1427.4" y="434.8" textLength="12.2" clip-path="url(#terminal-2015273408-line-17)">╯</text><text class="terminal-2015273408-r1" x="1464" y="434.8" textLength="12.2" clip-path="url(#terminal-2015273408-line-17)">
</text><text class="terminal-2015273408-r1" x="1464" y="459.2" textLength="12.2" clip-path="url(#terminal-2015273408-line-18)">
</text><text class="terminal-2015273408-r1" x="1464" y="483.6" textLength="12.2" clip-path="url(#terminal-2015273408-line-19)">
</text><text class="terminal-2015273408-r1" x="1464" y="508" textLength="12.2" clip-path="url(#terminal-2015273408-line-20)">
</text><text class="terminal-2015273408-r1" x="1464" y="532.4" textLength="12.2" clip-path="url(#terminal-2015273408-line-21)">
</text><text class="terminal-2015273408-r1" x="1464" y="556.8" textLength="12.2" clip-path="url(#terminal-2015273408-line-22)">
</text><text class="terminal-2015273408-r1" x="1464" y="581.2" textLength="12.2" clip-path="url(#terminal-2015273408-line-23)">
</text><text class="terminal-2015273408-r1" x="1464" y="605.6" textLength="12.2" clip-path="url(#terminal-2015273408-line-24)">
</text><text class="terminal-2015273408-r1" x="1464" y="630" textLength="12.2" clip-path="url(#terminal-2015273408-line-25)">
</text><text class="terminal-2015273408-r1" x="1464" y="654.4" textLength="12.2" clip-path="url(#terminal-2015273408-line-26)">
</text><text class="terminal-2015273408-r1" x="1464" y="678.8" textLength="12.2" clip-path="url(#terminal-2015273408-line-27)">
</text><text class="terminal-2015273408-r1" x="1464" y="703.2" textLength="12.2" clip-path="url(#terminal-2015273408-line-28)">
</text><text class="terminal-2015273408-r1" x="1464" y="727.6" textLength="12.2" clip-path="url(#terminal-2015273408-line-29)">
</text><text class="terminal-2015273408-r1" x="1464" y="752" textLength="12.2" clip-path="url(#terminal-2015273408-line-30)">
</text><text class="terminal-2015273408-r1" x="1464" y="776.4" textLength="12.2" clip-path="url(#terminal-2015273408-line-31)">
</text><text class="terminal-2015273408-r1" x="1464" y="800.8" textLength="12.2" clip-path="url(#terminal-2015273408-line-32)">
</text><text class="terminal-2015273408-r1" x="1464" y="825.2" textLength="12.2" clip-path="url(#terminal-2015273408-line-33)">
</text><text class="terminal-2015273408-r1" x="1464" y="849.6" textLength="12.2" clip-path="url(#terminal-2015273408-line-34)">
</text><text class="terminal-2015273408-r1" x="1464" y="874" textLength="12.2" clip-path="url(#terminal-2015273408-line-35)">
</text><text class="terminal-2015273408-r1" x="1464" y="898.4" textLength="12.2" clip-path="url(#terminal-2015273408-line-36)">
</text><text class="terminal-2015273408-r12" x="0" y="922.8" textLength="36.6" clip-path="url(#terminal-2015273408-line-37)">&#160;n&#160;</text><text class="terminal-2015273408-r3" x="36.6" y="922.8" textLength="146.4" clip-path="url(#terminal-2015273408-line-37)">New&#160;session&#160;</text><text class="terminal-2015273408-r12" x="183" y="922.8" textLength="36.6" clip-path="url(#terminal-2015273408-line-37)">&#160;s&#160;</text><text class="terminal-2015273408-r3" x="219.6" y="922.8" textLength="109.8" clip-path="url(#terminal-2015273408-line-37)">Sessions&#160;</text><text class="terminal-2015273408-r12" x="329.4" y="922.8" textLength="36.6" clip-path="url(#terminal-2015273408-line-37)">&#160;/&#160;</text><text class="terminal-2015273408-r3" x="366" y="922.8" textLength="85.4" clip-path="url(#terminal-2015273408-line-37)">Search&#160;</text><text class="terminal-2015273408-r12" x="451.4" y="922.8" textLength="36.6" clip-path="url(#terminal-2015273408-line-37)">&#160;,&#160;</text><text class="terminal-2015273408-r3" x="488" y="922.8" textLength="109.8" clip-path="url(#terminal-2015273408-line-37)">Settings&#160;</text><text class="terminal-2015273408-r12" x="597.8" y="922.8" textLength="36.6" clip-path="url(#terminal-2015273408-line-37)">&#160;d&#160;</text><text class="terminal-2015273408-r3" x="634.4" y="922.8" textLength="85.4" clip-path="url(#terminal-2015273408-line-37)">Doctor&#160;</text><text class="terminal-2015273408-r12" x="719.8" y="922.8" textLength="36.6" clip-path="url(#terminal-2015273408-line-37)">&#160;?&#160;</text><text class="terminal-2015273408-r3" x="756.4" y="922.8" textLength="61" clip-path="url(#terminal-2015273408-line-37)">Help&#160;</text><text class="terminal-2015273408-r12" x="817.4" y="922.8" textLength="36.6" clip-path="url(#terminal-2015273408-line-37)">&#160;q&#160;</text><text class="terminal-2015273408-r3" x="854" y="922.8" textLength="61" clip-path="url(#terminal-2015273408-line-37)">Quit&#160;</text><text class="terminal-2015273408-r13" x="1305.4" y="922.8" textLength="12.2" clip-path="url(#terminal-2015273408-line-37)">▏</text><text class="terminal-2015273408-r12" x="1317.6" y="922.8" textLength="24.4" clip-path="url(#terminal-2015273408-line-37)">^p</text><text class="terminal-2015273408-r3" x="1342" y="922.8" textLength="109.8" clip-path="url(#terminal-2015273408-line-37)">&#160;Commands</text>
    </g>
    </g>
</svg>
